<svg xmlns="http://www.w3.org/2000/svg" xmlns:xlink="http://www.w3.org/1999/xlink" width="500" zoomAndPan="magnify" viewBox="0 0 375 374.999991" height="500" preserveAspectRatio="xMidYMid meet" version="1.0"><defs><g/><clipPath id="988e316294"><path d="M 3.917969 6 L 371.417969 6 L 371.417969 290.160156 L 3.917969 290.160156 Z M 3.917969 6 " clip-rule="nonzero"/></clipPath><clipPath id="d21ae560c1"><path d="M 0.917969 0 L 368.078125 0 L 368.078125 284.160156 L 0.917969 284.160156 Z M 0.917969 0 " clip-rule="nonzero"/></clipPath><clipPath id="febca968d2"><rect x="0" width="369" y="0" height="285"/></clipPath></defs><rect x="-37.5" width="450" fill="#ffffff" y="-37.499999" height="449.999989" fill-opacity="1"/><rect x="-37.5" width="450" fill="#ffffff" y="-37.499999" height="449.999989" fill-opacity="1"/><g clip-path="url(#988e316294)"><g transform="matrix(1, 0, 0, 1, 3, 6)"><g clip-path="url(#febca968d2)"><g clip-path="url(#d21ae560c1)"><path fill="#ff69b4" d="M 125.765625 0.0625 L 132.277344 6.558594 C 110.003906 4.476562 87.679688 5.769531 67.179688 15.257812 C 65.210938 17.289062 73.894531 16.730469 73.6875 18.855469 C 65.941406 20.945312 58.476562 24.195312 51.503906 28.140625 C 43.148438 32.871094 33.753906 39.347656 28.117188 47.066406 L 36.796875 46.707031 C 26.871094 55.332031 17.269531 65.613281 10.898438 77.230469 C 9.636719 79.535156 6.777344 84.878906 6.410156 87.214844 C 5.847656 90.800781 15.539062 81.828125 14.363281 85.757812 C 13.613281 88.269531 10.484375 92.183594 9.191406 95.050781 C 4.140625 106.214844 -0.636719 124.988281 1.386719 137.09375 C 1.53125 137.949219 1.816406 138.808594 2.792969 138.933594 C 3.445312 136.335938 5.222656 133.886719 6.929688 131.898438 C 7.375 131.378906 6.902344 130.527344 8.585938 130.980469 C 6.234375 146.488281 8.980469 162.511719 15.832031 176.539062 L 18.707031 167.871094 C 21.992188 179.179688 27.152344 191.136719 36.789062 198.246094 L 36.433594 191.015625 C 39.394531 194.980469 42.722656 198.738281 46.582031 201.839844 C 51.265625 205.605469 60.519531 209.011719 63.589844 212.320312 C 67.390625 216.417969 68.898438 225.03125 74.023438 230.09375 C 76.914062 232.953125 79.054688 232.609375 81.613281 234.078125 C 84.257812 235.597656 94.859375 258.5 94.710938 262.242188 C 94.328125 271.679688 75.589844 267.996094 75.136719 278.527344 L 105.867188 276.367188 C 117.625 280.007812 129.449219 282.714844 141.671875 284.3125 C 142.183594 283.800781 140.265625 281.316406 139.804688 280.765625 C 138.5 279.207031 136.539062 278.914062 136.617188 277.085938 C 144.335938 277.382812 152.230469 277.480469 159.753906 279.25 L 153.976562 271.300781 C 164.082031 269.648438 174.101562 273.324219 184.09375 274.8125 C 190.0625 275.699219 196.179688 275.570312 202.0625 277.09375 C 202.890625 275.023438 199.050781 273.527344 198.816406 271.304688 L 214.726562 272.015625 C 213.082031 266.523438 204.148438 261.722656 198.851562 260.773438 C 186.75 258.609375 177.492188 265.707031 167.34375 254.667969 C 165.152344 252.285156 152.207031 232.996094 152.867188 231.5 C 154.613281 229.050781 157.757812 228.046875 159.75 226.082031 C 169.050781 216.910156 171.285156 205.457031 185.3125 198.839844 C 200.289062 191.777344 212.445312 189.480469 225.589844 177.636719 C 227.320312 176.078125 234.015625 168.117188 234.632812 167.867188 C 237.074219 166.878906 233.765625 173.886719 235.34375 174.367188 C 242.738281 167.886719 248.285156 160.1875 253.191406 151.710938 C 258.109375 143.214844 260.722656 132.238281 270.644531 127.933594 C 274.464844 126.269531 291.328125 120.25 294.695312 120.101562 C 308.90625 119.460938 335.886719 142.367188 345.300781 152.664062 C 350.503906 158.355469 354.992188 165.550781 360.101562 171.136719 C 360.964844 172.082031 367.007812 178.449219 368.074219 177.261719 C 368.074219 168.949219 363.9375 160.34375 359.976562 153.179688 C 354.300781 142.917969 345.820312 131.828125 338.070312 123.007812 C 333.632812 117.953125 316.566406 102.421875 314.945312 97.667969 C 313.734375 94.128906 314.464844 84.75 313.742188 80.066406 C 309.015625 49.335938 279.507812 32.691406 250.011719 37.859375 C 235.027344 40.484375 232.328125 46.308594 217.398438 36.085938 C 205.003906 27.59375 193.945312 15 178.914062 10.1875 C 178.445312 10.039062 177.691406 10.042969 177.851562 10.535156 L 181.460938 17.054688 C 181.617188 17.542969 180.867188 17.550781 180.390625 17.398438 C 176.988281 16.320312 171.203125 12.058594 167.253906 10.28125 C 154.363281 4.476562 139.898438 1.011719 125.765625 0.0585938 Z M 283.09375 75.582031 C 289.203125 75.800781 290.113281 87.171875 281.707031 86.113281 C 275.425781 85.324219 276.675781 75.351562 283.09375 75.582031 Z M 119.472656 222.191406 C 120.691406 222.503906 123.488281 226.910156 125.039062 228.269531 C 134.320312 236.386719 139.695312 240.421875 146.609375 251.539062 C 148.753906 254.984375 151.679688 258.132812 147.4375 261.503906 C 146.46875 262.273438 137.253906 266.292969 135.917969 266.621094 C 130.40625 267.976562 117.726562 265.699219 113.863281 261.140625 C 111.742188 258.640625 103.082031 237.5 103.335938 234.796875 C 103.597656 232.03125 106.472656 232.664062 108.074219 231.542969 C 110.394531 229.917969 116.207031 223.195312 117.828125 222.453125 C 118.445312 222.171875 118.746094 222.007812 119.476562 222.195312 Z M 119.472656 222.191406 " fill-opacity="1" fill-rule="nonzero"/></g></g></g></g><g fill="#ff69b4" fill-opacity="1"><g transform="translate(82.360399, 351.718542)"><g><path d="M 3.5 0 L 3.5 -41.1875 L 20.390625 -41.1875 C 23.347656 -41.1875 25.945312 -40.648438 28.1875 -39.578125 C 30.425781 -38.503906 32.175781 -37.03125 33.4375 -35.15625 C 34.707031 -33.289062 35.34375 -31.132812 35.34375 -28.6875 C 35.34375 -26.269531 34.707031 -24.113281 33.4375 -22.21875 C 32.175781 -20.332031 30.414062 -18.863281 28.15625 -17.8125 C 25.894531 -16.757812 23.304688 -16.234375 20.390625 -16.234375 L 8.234375 -16.234375 L 8.234375 0 Z M 8.234375 -20.625 L 20.390625 -20.625 C 22.378906 -20.625 24.128906 -20.960938 25.640625 -21.640625 C 27.160156 -22.328125 28.347656 -23.28125 29.203125 -24.5 C 30.066406 -25.726562 30.5 -27.125 30.5 -28.6875 C 30.5 -31.101562 29.5625 -33.066406 27.6875 -34.578125 C 25.820312 -36.097656 23.390625 -36.859375 20.390625 -36.859375 L 8.234375 -36.859375 Z M 8.234375 -20.625 "/></g></g></g><g fill="#ff69b4" fill-opacity="1"><g transform="translate(118.864257, 351.718542)"><g><path d="M 5.609375 -35.234375 C 4.628906 -35.234375 3.835938 -35.535156 3.234375 -36.140625 C 2.640625 -36.742188 2.34375 -37.53125 2.34375 -38.5 C 2.34375 -39.46875 2.640625 -40.242188 3.234375 -40.828125 C 3.835938 -41.421875 4.628906 -41.71875 5.609375 -41.71875 C 6.578125 -41.71875 7.375 -41.421875 8 -40.828125 C 8.625 -40.242188 8.9375 -39.46875 8.9375 -38.5 C 8.9375 -37.53125 8.625 -36.742188 8 -36.140625 C 7.375 -35.535156 6.578125 -35.234375 5.609375 -35.234375 Z M 3.328125 0 L 3.328125 -29.5 L 7.765625 -29.5 L 7.765625 0 Z M 3.328125 0 "/></g></g></g><g fill="#ff69b4" fill-opacity="1"><g transform="translate(130.136653, 351.718542)"><g><path d="M 18.75 -30.671875 C 22.144531 -30.671875 24.8125 -29.644531 26.75 -27.59375 C 28.695312 -25.550781 29.671875 -22.703125 29.671875 -19.046875 L 29.671875 0 L 25.1875 0 L 25.1875 -18.578125 C 25.1875 -21.109375 24.492188 -23.113281 23.109375 -24.59375 C 21.722656 -26.070312 19.863281 -26.8125 17.53125 -26.8125 C 15.539062 -26.8125 13.785156 -26.382812 12.265625 -25.53125 C 10.742188 -24.675781 9.546875 -23.488281 8.671875 -21.96875 C 7.796875 -20.445312 7.359375 -18.675781 7.359375 -16.65625 L 7.359375 0 L 2.921875 0 L 2.921875 -29.5 L 6.953125 -29.5 L 7.359375 -25.125 L 7.421875 -25.125 C 8.671875 -26.914062 10.226562 -28.285156 12.09375 -29.234375 C 13.957031 -30.191406 16.175781 -30.671875 18.75 -30.671875 Z M 18.75 -30.671875 "/></g></g></g><g fill="#ff69b4" fill-opacity="1"><g transform="translate(162.435265, 351.718542)"><g><path d="M 2.921875 0 L 2.921875 -42.9375 L 7.359375 -42.9375 L 7.359375 -16.1875 L 7.421875 -16.1875 L 19.921875 -29.5 L 25.828125 -29.5 L 14.65625 -17.875 L 26.8125 0 L 21.4375 0 L 11.625 -14.65625 L 7.359375 -10.21875 L 7.359375 0 Z M 2.921875 0 "/></g></g></g><g fill="#ff69b4" fill-opacity="1"><g transform="translate(189.2437, 351.718542)"><g><path d="M 3.5 0 L 3.5 -41.1875 L 8.359375 -41.1875 L 8.359375 -22.03125 L 8.40625 -22.03125 L 25.765625 -41.1875 L 31.71875 -41.1875 L 16.890625 -24.828125 L 32.78125 0 L 27.046875 0 L 13.734375 -21.375 L 8.359375 -15.71875 L 8.359375 0 Z M 3.5 0 "/></g></g></g><g fill="#ff69b4" fill-opacity="1"><g transform="translate(222.593624, 351.718542)"><g><path d="M 5.609375 -35.234375 C 4.628906 -35.234375 3.835938 -35.535156 3.234375 -36.140625 C 2.640625 -36.742188 2.34375 -37.53125 2.34375 -38.5 C 2.34375 -39.46875 2.640625 -40.242188 3.234375 -40.828125 C 3.835938 -41.421875 4.628906 -41.71875 5.609375 -41.71875 C 6.578125 -41.71875 7.375 -41.421875 8 -40.828125 C 8.625 -40.242188 8.9375 -39.46875 8.9375 -38.5 C 8.9375 -37.53125 8.625 -36.742188 8 -36.140625 C 7.375 -35.535156 6.578125 -35.234375 5.609375 -35.234375 Z M 3.328125 0 L 3.328125 -29.5 L 7.765625 -29.5 L 7.765625 0 Z M 3.328125 0 "/></g></g></g><g fill="#ff69b4" fill-opacity="1"><g transform="translate(233.86602, 351.718542)"><g><path d="M 10.40625 0 L 0.578125 -29.5 L 5.265625 -29.5 L 13.140625 -4.375 L 13.203125 -4.375 L 20.96875 -29.5 L 26.53125 -29.5 L 34.40625 -4.328125 L 34.46875 -4.328125 L 42.296875 -29.5 L 46.90625 -29.5 L 37.21875 0 L 31.484375 0 L 23.78125 -24.828125 L 23.65625 -24.828125 L 16.1875 0 Z M 10.40625 0 "/></g></g></g><g fill="#ff69b4" fill-opacity="1"><g transform="translate(281.350231, 351.718542)"><g><path d="M 5.609375 -35.234375 C 4.628906 -35.234375 3.835938 -35.535156 3.234375 -36.140625 C 2.640625 -36.742188 2.34375 -37.53125 2.34375 -38.5 C 2.34375 -39.46875 2.640625 -40.242188 3.234375 -40.828125 C 3.835938 -41.421875 4.628906 -41.71875 5.609375 -41.71875 C 6.578125 -41.71875 7.375 -41.421875 8 -40.828125 C 8.625 -40.242188 8.9375 -39.46875 8.9375 -38.5 C 8.9375 -37.53125 8.625 -36.742188 8 -36.140625 C 7.375 -35.535156 6.578125 -35.234375 5.609375 -35.234375 Z M 3.328125 0 L 3.328125 -29.5 L 7.765625 -29.5 L 7.765625 0 Z M 3.328125 0 "/></g></g></g></svg>