<svg xmlns="http://www.w3.org/2000/svg" xmlns:xlink="http://www.w3.org/1999/xlink" width="500" zoomAndPan="magnify" viewBox="0 0 375 374.999991" height="500" preserveAspectRatio="xMidYMid meet" version="1.0"><defs><g/><clipPath id="7d4ba0a10f"><path d="M 3.917969 6 L 371.417969 6 L 371.417969 290.160156 L 3.917969 290.160156 Z M 3.917969 6 " clip-rule="nonzero"/></clipPath><clipPath id="e9e6167a33"><path d="M 0.917969 0 L 368.078125 0 L 368.078125 284.160156 L 0.917969 284.160156 Z M 0.917969 0 " clip-rule="nonzero"/></clipPath><clipPath id="6a0ab10462"><rect x="0" width="369" y="0" height="285"/></clipPath></defs><path fill="#373434" d="M 187.5 0 C 84.042969 0 0 84.042969 0 187.5 C 0 290.957031 84.042969 375 187.5 375 C 290.957031 375 375 290.957031 375 187.5 C 375 84.042969 290.957031 0 187.5 0 Z M 187.5 16.304688 C 282.144531 16.304688 358.695312 92.855469 358.695312 187.5 C 358.695312 282.144531 282.144531 358.695312 187.5 358.695312 C 92.855469 358.695312 16.304688 282.144531 16.304688 187.5 C 16.304688 92.855469 92.855469 16.304688 187.5 16.304688 Z M 187.5 16.304688 " fill-opacity="1" fill-rule="nonzero"/><g clip-path="url(#7d4ba0a10f)"><g transform="matrix(1, 0, 0, 1, 3, 6)"><g clip-path="url(#6a0ab10462)"><g clip-path="url(#e9e6167a33)"><path fill="#ff69b4" d="M 125.765625 0.0625 L 132.277344 6.558594 C 110.003906 4.476562 87.679688 5.769531 67.179688 15.257812 C 65.210938 17.289062 73.894531 16.730469 73.6875 18.855469 C 65.941406 20.945312 58.476562 24.195312 51.503906 28.140625 C 43.148438 32.871094 33.753906 39.347656 28.117188 47.066406 L 36.796875 46.707031 C 26.871094 55.332031 17.269531 65.613281 10.898438 77.230469 C 9.636719 79.535156 6.777344 84.878906 6.410156 87.214844 C 5.847656 90.800781 15.539062 81.828125 14.363281 85.757812 C 13.613281 88.269531 10.484375 92.183594 9.191406 95.050781 C 4.140625 106.214844 -0.636719 124.988281 1.386719 137.09375 C 1.53125 137.949219 1.816406 138.808594 2.792969 138.933594 C 3.445312 136.335938 5.222656 133.886719 6.929688 131.898438 C 7.375 131.378906 6.902344 130.527344 8.585938 130.980469 C 6.234375 146.488281 8.980469 162.511719 15.832031 176.539062 L 18.707031 167.871094 C 21.992188 179.179688 27.152344 191.136719 36.789062 198.246094 L 36.433594 191.015625 C 39.394531 194.980469 42.722656 198.738281 46.582031 201.839844 C 51.265625 205.605469 60.519531 209.011719 63.589844 212.320312 C 67.390625 216.417969 68.898438 225.03125 74.023438 230.09375 C 76.914062 232.953125 79.054688 232.609375 81.613281 234.078125 C 84.257812 235.597656 94.859375 258.5 94.710938 262.242188 C 94.328125 271.679688 75.589844 267.996094 75.136719 278.527344 L 105.867188 276.367188 C 117.625 280.007812 129.449219 282.714844 141.671875 284.3125 C 142.183594 283.800781 140.265625 281.316406 139.804688 280.765625 C 138.5 279.207031 136.539062 278.914062 136.617188 277.085938 C 144.335938 277.382812 152.230469 277.480469 159.753906 279.25 L 153.976562 271.300781 C 164.082031 269.648438 174.101562 273.324219 184.09375 274.8125 C 190.0625 275.699219 196.179688 275.570312 202.0625 277.09375 C 202.890625 275.023438 199.050781 273.527344 198.816406 271.304688 L 214.726562 272.015625 C 213.082031 266.523438 204.148438 261.722656 198.851562 260.773438 C 186.75 258.609375 177.492188 265.707031 167.34375 254.667969 C 165.152344 252.285156 152.207031 232.996094 152.867188 231.5 C 154.613281 229.050781 157.757812 228.046875 159.75 226.082031 C 169.050781 216.910156 171.285156 205.457031 185.3125 198.839844 C 200.289062 191.777344 212.445312 189.480469 225.589844 177.636719 C 227.320312 176.078125 234.015625 168.117188 234.632812 167.867188 C 237.074219 166.878906 233.765625 173.886719 235.34375 174.367188 C 242.738281 167.886719 248.285156 160.1875 253.191406 151.710938 C 258.109375 143.214844 260.722656 132.238281 270.644531 127.933594 C 274.464844 126.269531 291.328125 120.25 294.695312 120.101562 C 308.90625 119.460938 335.886719 142.367188 345.300781 152.664062 C 350.503906 158.355469 354.992188 165.550781 360.101562 171.136719 C 360.964844 172.082031 367.007812 178.449219 368.074219 177.261719 C 368.074219 168.949219 363.9375 160.34375 359.976562 153.179688 C 354.300781 142.917969 345.820312 131.828125 338.070312 123.007812 C 333.632812 117.953125 316.566406 102.421875 314.945312 97.667969 C 313.734375 94.128906 314.464844 84.75 313.742188 80.066406 C 309.015625 49.335938 279.507812 32.691406 250.011719 37.859375 C 235.027344 40.484375 232.328125 46.308594 217.398438 36.085938 C 205.003906 27.59375 193.945312 15 178.914062 10.1875 C 178.445312 10.039062 177.691406 10.042969 177.851562 10.535156 L 181.460938 17.054688 C 181.617188 17.542969 180.867188 17.550781 180.390625 17.398438 C 176.988281 16.320312 171.203125 12.058594 167.253906 10.28125 C 154.363281 4.476562 139.898438 1.011719 125.765625 0.0585938 Z M 283.09375 75.582031 C 289.203125 75.800781 290.113281 87.171875 281.707031 86.113281 C 275.425781 85.324219 276.675781 75.351562 283.09375 75.582031 Z M 119.472656 222.191406 C 120.691406 222.503906 123.488281 226.910156 125.039062 228.269531 C 134.320312 236.386719 139.695312 240.421875 146.609375 251.539062 C 148.753906 254.984375 151.679688 258.132812 147.4375 261.503906 C 146.46875 262.273438 137.253906 266.292969 135.917969 266.621094 C 130.40625 267.976562 117.726562 265.699219 113.863281 261.140625 C 111.742188 258.640625 103.082031 237.5 103.335938 234.796875 C 103.597656 232.03125 106.472656 232.664062 108.074219 231.542969 C 110.394531 229.917969 116.207031 223.195312 117.828125 222.453125 C 118.445312 222.171875 118.746094 222.007812 119.476562 222.195312 Z M 119.472656 222.191406 " fill-opacity="1" fill-rule="nonzero"/></g></g></g></g><g fill="#ffffff" fill-opacity="1"><g transform="translate(36.316408, 364.468598)"><g><path d="M 1.285156 0 L 1.285156 -55.027344 L 28.707031 -55.027344 C 33.183594 -55.027344 37.125 -54.214844 40.535156 -52.59375 C 44.035156 -50.925781 46.773438 -48.582031 48.742188 -45.550781 C 50.730469 -42.5 51.722656 -38.964844 51.722656 -34.945312 C 51.722656 -30.929688 50.730469 -27.386719 48.75 -24.3125 C 46.777344 -21.253906 44.023438 -18.890625 40.492188 -17.222656 C 37.058594 -15.601562 33.082031 -14.792969 28.558594 -14.792969 L 16.519531 -14.792969 L 16.519531 -17.546875 L 19.273438 -17.546875 L 19.273438 2.753906 L 1.285156 2.753906 Z M 6.792969 0 L 4.039062 0 L 4.039062 -2.753906 L 16.519531 -2.753906 L 16.519531 0 L 13.765625 0 L 13.765625 -20.300781 L 28.558594 -20.300781 C 32.257812 -20.300781 35.453125 -20.933594 38.140625 -22.203125 C 40.722656 -23.421875 42.71875 -25.121094 44.121094 -27.296875 C 45.519531 -29.460938 46.214844 -32.011719 46.214844 -34.945312 C 46.214844 -37.878906 45.519531 -40.410156 44.128906 -42.546875 C 42.722656 -44.707031 40.734375 -46.398438 38.167969 -47.621094 C 35.507812 -48.886719 32.355469 -49.519531 28.707031 -49.519531 L 4.039062 -49.519531 L 4.039062 -52.273438 L 6.792969 -52.273438 Z M 16.519531 -29.625 L 26.722656 -29.625 C 28.988281 -29.625 30.742188 -30.152344 31.992188 -31.210938 C 33.105469 -32.152344 33.660156 -33.398438 33.660156 -34.945312 C 33.660156 -36.542969 33.117188 -37.796875 32.03125 -38.71875 C 30.808594 -39.75 29.039062 -40.269531 26.722656 -40.269531 L 16.519531 -40.269531 L 16.519531 -43.023438 L 19.273438 -43.023438 L 19.273438 -26.871094 L 16.519531 -26.871094 Z M 13.765625 -24.117188 L 13.765625 -45.777344 L 26.722656 -45.777344 C 30.382812 -45.777344 33.335938 -44.824219 35.585938 -42.921875 C 37.972656 -40.90625 39.167969 -38.246094 39.167969 -34.945312 C 39.167969 -31.699219 37.964844 -29.050781 35.550781 -27.007812 C 33.277344 -25.082031 30.332031 -24.117188 26.722656 -24.117188 Z M 13.765625 -24.117188 "/></g></g></g><g fill="#ffffff" fill-opacity="1"><g transform="translate(86.746558, 364.468598)"><g><path d="M 8.808594 -39.976562 C 6.113281 -39.976562 3.886719 -40.820312 2.132812 -42.503906 C 0.34375 -44.222656 -0.550781 -46.425781 -0.550781 -49.117188 C -0.550781 -51.855469 0.34375 -54.085938 2.132812 -55.800781 C 3.886719 -57.488281 6.113281 -58.332031 8.808594 -58.332031 C 11.554688 -58.332031 13.804688 -57.488281 15.5625 -55.800781 C 17.351562 -54.085938 18.246094 -51.855469 18.246094 -49.117188 C 18.246094 -46.425781 17.351562 -44.222656 15.5625 -42.503906 C 13.804688 -40.820312 11.554688 -39.976562 8.808594 -39.976562 Z M 8.808594 -45.480469 C 10.078125 -45.480469 11.058594 -45.8125 11.75 -46.476562 C 12.40625 -47.109375 12.738281 -47.988281 12.738281 -49.117188 C 12.738281 -50.292969 12.40625 -51.195312 11.75 -51.828125 C 11.058594 -52.492188 10.078125 -52.824219 8.808594 -52.824219 C 7.589844 -52.824219 6.636719 -52.492188 5.945312 -51.828125 C 5.285156 -51.195312 4.957031 -50.292969 4.957031 -49.117188 C 4.957031 -47.988281 5.285156 -47.109375 5.945312 -46.476562 C 6.636719 -45.8125 7.589844 -45.480469 8.808594 -45.480469 Z M 0.476562 0 L 0.476562 -40.34375 L 17.144531 -40.34375 L 17.144531 2.753906 L 0.476562 2.753906 Z M 5.984375 0 L 3.230469 0 L 3.230469 -2.753906 L 14.390625 -2.753906 L 14.390625 0 L 11.636719 0 L 11.636719 -37.589844 L 14.390625 -37.589844 L 14.390625 -34.835938 L 3.230469 -34.835938 L 3.230469 -37.589844 L 5.984375 -37.589844 Z M 5.984375 0 "/></g></g></g><g fill="#ffffff" fill-opacity="1"><g transform="translate(104.437486, 364.468598)"><g><path d="M 27.53125 -41.445312 C 32.171875 -41.445312 35.859375 -40.042969 38.605469 -37.238281 C 41.328125 -34.453125 42.691406 -30.679688 42.691406 -25.917969 L 42.691406 2.753906 L 25.953125 2.753906 L 25.953125 -22.464844 C 25.953125 -23.902344 25.632812 -24.96875 24.992188 -25.667969 C 24.410156 -26.296875 23.542969 -26.613281 22.390625 -26.613281 C 20.761719 -26.613281 19.445312 -26.105469 18.445312 -25.085938 C 17.429688 -24.054688 16.921875 -22.621094 16.921875 -20.777344 L 16.921875 2.753906 L 0.183594 2.753906 L 0.183594 -40.34375 L 14.5625 -40.34375 L 16.769531 -31.421875 L 14.097656 -30.761719 L 14.097656 -33.515625 L 14.167969 -33.515625 L 14.167969 -30.761719 L 11.746094 -32.066406 C 13.355469 -35.054688 15.511719 -37.363281 18.21875 -38.992188 C 20.933594 -40.628906 24.035156 -41.445312 27.53125 -41.445312 Z M 27.53125 -35.9375 C 25.054688 -35.9375 22.898438 -35.382812 21.058594 -34.277344 C 19.214844 -33.164062 17.726562 -31.558594 16.59375 -29.457031 L 15.8125 -28.007812 L 11.941406 -28.007812 L 9.734375 -36.929688 L 12.40625 -37.589844 L 12.40625 -34.835938 L 2.9375 -34.835938 L 2.9375 -37.589844 L 5.691406 -37.589844 L 5.691406 0 L 2.9375 0 L 2.9375 -2.753906 L 14.167969 -2.753906 L 14.167969 0 L 11.417969 0 L 11.417969 -20.777344 C 11.417969 -24.125 12.449219 -26.847656 14.519531 -28.949219 C 16.601562 -31.0625 19.226562 -32.121094 22.390625 -32.121094 C 25.15625 -32.121094 27.371094 -31.210938 29.042969 -29.394531 C 30.65625 -27.644531 31.460938 -25.335938 31.460938 -22.464844 L 31.460938 0 L 28.707031 0 L 28.707031 -2.753906 L 39.9375 -2.753906 L 39.9375 0 L 37.1875 0 L 37.1875 -25.917969 C 37.1875 -29.179688 36.347656 -31.671875 34.667969 -33.386719 C 33.003906 -35.089844 30.625 -35.9375 27.53125 -35.9375 Z M 27.53125 -35.9375 "/></g></g></g><g fill="#ffffff" fill-opacity="1"><g transform="translate(147.08657, 364.468598)"><g><path d="M 0.183594 0 L 0.183594 -57.230469 L 16.921875 -57.230469 L 16.921875 -24.082031 L 14.167969 -24.082031 L 14.167969 -26.835938 L 14.242188 -26.835938 L 14.242188 -24.082031 L 12.226562 -25.957031 L 25.597656 -40.34375 L 46.417969 -40.34375 L 27.738281 -21.273438 L 25.769531 -23.199219 L 28.09375 -24.675781 L 45.539062 2.753906 L 26.550781 2.753906 L 15.988281 -15.039062 L 18.355469 -16.445312 L 20.351562 -14.550781 L 16.164062 -10.144531 L 14.167969 -12.039062 L 16.921875 -12.039062 L 16.921875 2.753906 L 0.183594 2.753906 Z M 5.691406 0 L 2.9375 0 L 2.9375 -2.753906 L 14.167969 -2.753906 L 14.167969 0 L 11.417969 0 L 11.417969 -13.140625 L 18.863281 -20.980469 L 30.488281 -1.40625 L 28.117188 0 L 28.117188 -2.753906 L 40.527344 -2.753906 L 40.527344 0 L 38.203125 1.476562 L 22.273438 -23.566406 L 37.898438 -39.515625 L 39.867188 -37.589844 L 39.867188 -34.835938 L 26.796875 -34.835938 L 26.796875 -37.589844 L 28.8125 -35.714844 L 15.441406 -21.328125 L 11.417969 -21.328125 L 11.417969 -54.476562 L 14.167969 -54.476562 L 14.167969 -51.722656 L 2.9375 -51.722656 L 2.9375 -54.476562 L 5.691406 -54.476562 Z M 5.691406 0 "/></g></g></g><g fill="#ffffff" fill-opacity="1"><g transform="translate(187.606869, 364.468598)"><g><path d="M 1.285156 0 L 1.285156 -55.027344 L 19.347656 -55.027344 L 19.347656 -32.378906 L 16.59375 -32.378906 L 17.824219 -34.839844 L 17.96875 -34.765625 L 16.738281 -32.304688 L 14.625 -34.066406 L 32.117188 -55.027344 L 54.847656 -55.027344 L 32.664062 -30.316406 L 30.613281 -32.15625 L 32.996094 -33.542969 L 54.125 2.753906 L 32.554688 2.753906 L 19.667969 -21.542969 L 22.097656 -22.832031 L 24.105469 -20.949219 L 18.601562 -15.078125 L 16.59375 -16.960938 L 19.347656 -16.960938 L 19.347656 2.753906 L 1.285156 2.753906 Z M 6.792969 0 L 4.039062 0 L 4.039062 -2.753906 L 16.59375 -2.753906 L 16.59375 0 L 13.839844 0 L 13.839844 -18.046875 L 22.726562 -27.527344 L 36.644531 -1.289062 L 34.210938 0 L 34.210938 -2.753906 L 49.335938 -2.753906 L 49.335938 0 L 46.957031 1.386719 L 27.226562 -32.503906 L 46.628906 -54.113281 L 48.675781 -52.273438 L 48.675781 -49.519531 L 33.40625 -49.519531 L 33.40625 -52.273438 L 35.519531 -50.507812 L 17.457031 -28.867188 L 13.839844 -30.675781 L 13.839844 -52.273438 L 16.59375 -52.273438 L 16.59375 -49.519531 L 4.039062 -49.519531 L 4.039062 -52.273438 L 6.792969 -52.273438 Z M 6.792969 0 "/></g></g></g><g fill="#ffffff" fill-opacity="1"><g transform="translate(237.30296, 364.468598)"><g><path d="M 8.808594 -39.976562 C 6.113281 -39.976562 3.886719 -40.820312 2.132812 -42.503906 C 0.34375 -44.222656 -0.550781 -46.425781 -0.550781 -49.117188 C -0.550781 -51.855469 0.34375 -54.085938 2.132812 -55.800781 C 3.886719 -57.488281 6.113281 -58.332031 8.808594 -58.332031 C 11.554688 -58.332031 13.804688 -57.488281 15.5625 -55.800781 C 17.351562 -54.085938 18.246094 -51.855469 18.246094 -49.117188 C 18.246094 -46.425781 17.351562 -44.222656 15.5625 -42.503906 C 13.804688 -40.820312 11.554688 -39.976562 8.808594 -39.976562 Z M 8.808594 -45.480469 C 10.078125 -45.480469 11.058594 -45.8125 11.75 -46.476562 C 12.40625 -47.109375 12.738281 -47.988281 12.738281 -49.117188 C 12.738281 -50.292969 12.40625 -51.195312 11.75 -51.828125 C 11.058594 -52.492188 10.078125 -52.824219 8.808594 -52.824219 C 7.589844 -52.824219 6.636719 -52.492188 5.945312 -51.828125 C 5.285156 -51.195312 4.957031 -50.292969 4.957031 -49.117188 C 4.957031 -47.988281 5.285156 -47.109375 5.945312 -46.476562 C 6.636719 -45.8125 7.589844 -45.480469 8.808594 -45.480469 Z M 0.476562 0 L 0.476562 -40.34375 L 17.144531 -40.34375 L 17.144531 2.753906 L 0.476562 2.753906 Z M 5.984375 0 L 3.230469 0 L 3.230469 -2.753906 L 14.390625 -2.753906 L 14.390625 0 L 11.636719 0 L 11.636719 -37.589844 L 14.390625 -37.589844 L 14.390625 -34.835938 L 3.230469 -34.835938 L 3.230469 -37.589844 L 5.984375 -37.589844 Z M 5.984375 0 "/></g></g></g><g fill="#ffffff" fill-opacity="1"><g transform="translate(254.993899, 364.468598)"><g><path d="M 9.335938 0.8125 L -3.363281 -40.34375 L 13.796875 -40.34375 L 21.53125 -10.90625 L 18.867188 -10.203125 L 18.867188 -12.957031 L 18.941406 -12.957031 L 18.941406 -10.203125 L 16.320312 -11.046875 L 25.746094 -40.34375 L 40.183594 -40.34375 L 49.683594 -10.753906 L 47.0625 -9.910156 L 47.0625 -12.664062 L 47.132812 -12.664062 L 47.132812 -9.910156 L 44.472656 -10.609375 L 52.277344 -40.34375 L 69.359375 -40.34375 L 56.144531 2.753906 L 39.316406 2.753906 L 30.414062 -25.378906 L 33.039062 -26.210938 L 33.039062 -23.457031 L 32.890625 -23.457031 L 32.890625 -26.210938 L 35.519531 -25.390625 L 26.769531 2.753906 L 9.933594 2.753906 Z M 14.597656 -0.8125 L 11.96875 0 L 11.96875 -2.753906 L 24.742188 -2.753906 L 24.742188 0 L 22.113281 -0.816406 L 30.863281 -28.964844 L 35.054688 -28.964844 L 43.960938 -0.832031 L 41.335938 0 L 41.335938 -2.753906 L 54.109375 -2.753906 L 54.109375 0 L 51.476562 -0.808594 L 63.003906 -38.398438 L 65.636719 -37.589844 L 65.636719 -34.835938 L 54.402344 -34.835938 L 54.402344 -37.589844 L 57.066406 -36.890625 L 49.257812 -7.15625 L 45.050781 -7.15625 L 35.554688 -36.75 L 38.175781 -37.589844 L 38.175781 -34.835938 L 27.75 -34.835938 L 27.75 -37.589844 L 30.371094 -36.746094 L 20.949219 -7.453125 L 16.746094 -7.453125 L 9.011719 -36.890625 L 11.671875 -37.589844 L 11.671875 -34.835938 L 0.367188 -34.835938 L 0.367188 -37.589844 L 2.996094 -38.402344 Z M 14.597656 -0.8125 "/></g></g></g><g fill="#ffffff" fill-opacity="1"><g transform="translate(320.986182, 364.468598)"><g><path d="M 8.808594 -39.976562 C 6.113281 -39.976562 3.886719 -40.820312 2.132812 -42.503906 C 0.34375 -44.222656 -0.550781 -46.425781 -0.550781 -49.117188 C -0.550781 -51.855469 0.34375 -54.085938 2.132812 -55.800781 C 3.886719 -57.488281 6.113281 -58.332031 8.808594 -58.332031 C 11.554688 -58.332031 13.804688 -57.488281 15.5625 -55.800781 C 17.351562 -54.085938 18.246094 -51.855469 18.246094 -49.117188 C 18.246094 -46.425781 17.351562 -44.222656 15.5625 -42.503906 C 13.804688 -40.820312 11.554688 -39.976562 8.808594 -39.976562 Z M 8.808594 -45.480469 C 10.078125 -45.480469 11.058594 -45.8125 11.75 -46.476562 C 12.40625 -47.109375 12.738281 -47.988281 12.738281 -49.117188 C 12.738281 -50.292969 12.40625 -51.195312 11.75 -51.828125 C 11.058594 -52.492188 10.078125 -52.824219 8.808594 -52.824219 C 7.589844 -52.824219 6.636719 -52.492188 5.945312 -51.828125 C 5.285156 -51.195312 4.957031 -50.292969 4.957031 -49.117188 C 4.957031 -47.988281 5.285156 -47.109375 5.945312 -46.476562 C 6.636719 -45.8125 7.589844 -45.480469 8.808594 -45.480469 Z M 0.476562 0 L 0.476562 -40.34375 L 17.144531 -40.34375 L 17.144531 2.753906 L 0.476562 2.753906 Z M 5.984375 0 L 3.230469 0 L 3.230469 -2.753906 L 14.390625 -2.753906 L 14.390625 0 L 11.636719 0 L 11.636719 -37.589844 L 14.390625 -37.589844 L 14.390625 -34.835938 L 3.230469 -34.835938 L 3.230469 -37.589844 L 5.984375 -37.589844 Z M 5.984375 0 "/></g></g></g><g fill="#ff69b4" fill-opacity="1"><g transform="translate(36.316408, 364.468598)"><g><path d="M 4.03125 0 L 4.03125 -52.28125 L 28.703125 -52.28125 C 32.765625 -52.28125 36.3125 -51.554688 39.34375 -50.109375 C 42.382812 -48.660156 44.75 -46.640625 46.4375 -44.046875 C 48.125 -41.453125 48.96875 -38.421875 48.96875 -34.953125 C 48.96875 -31.472656 48.125 -28.421875 46.4375 -25.796875 C 44.75 -23.179688 42.375 -21.148438 39.3125 -19.703125 C 36.257812 -18.265625 32.675781 -17.546875 28.5625 -17.546875 L 16.515625 -17.546875 L 16.515625 0 Z M 16.515625 -26.875 L 26.71875 -26.875 C 29.65625 -26.875 32.003906 -27.617188 33.765625 -29.109375 C 35.535156 -30.597656 36.421875 -32.546875 36.421875 -34.953125 C 36.421875 -37.398438 35.550781 -39.359375 33.8125 -40.828125 C 32.070312 -42.296875 29.707031 -43.03125 26.71875 -43.03125 L 16.515625 -43.03125 Z M 16.515625 -26.875 "/></g></g></g><g fill="#ff69b4" fill-opacity="1"><g transform="translate(86.746558, 364.468598)"><g><path d="M 8.8125 -42.734375 C 6.851562 -42.734375 5.257812 -43.316406 4.03125 -44.484375 C 2.8125 -45.660156 2.203125 -47.207031 2.203125 -49.125 C 2.203125 -51.082031 2.8125 -52.644531 4.03125 -53.8125 C 5.257812 -54.988281 6.851562 -55.578125 8.8125 -55.578125 C 10.820312 -55.578125 12.4375 -54.988281 13.65625 -53.8125 C 14.875 -52.644531 15.484375 -51.082031 15.484375 -49.125 C 15.484375 -47.207031 14.875 -45.660156 13.65625 -44.484375 C 12.4375 -43.316406 10.820312 -42.734375 8.8125 -42.734375 Z M 3.234375 0 L 3.234375 -37.59375 L 14.390625 -37.59375 L 14.390625 0 Z M 3.234375 0 "/></g></g></g><g fill="#ff69b4" fill-opacity="1"><g transform="translate(104.437486, 364.468598)"><g><path d="M 27.53125 -38.6875 C 31.394531 -38.6875 34.425781 -37.5625 36.625 -35.3125 C 38.832031 -33.0625 39.9375 -29.929688 39.9375 -25.921875 L 39.9375 0 L 28.703125 0 L 28.703125 -22.46875 C 28.703125 -24.625 28.140625 -26.3125 27.015625 -27.53125 C 25.890625 -28.757812 24.347656 -29.375 22.390625 -29.375 C 19.992188 -29.375 18.023438 -28.585938 16.484375 -27.015625 C 14.941406 -25.453125 14.171875 -23.375 14.171875 -20.78125 L 14.171875 0 L 2.9375 0 L 2.9375 -37.59375 L 12.40625 -37.59375 L 14.09375 -30.765625 L 14.171875 -30.765625 C 15.535156 -33.304688 17.351562 -35.257812 19.625 -36.625 C 21.90625 -38 24.539062 -38.6875 27.53125 -38.6875 Z M 27.53125 -38.6875 "/></g></g></g><g fill="#ff69b4" fill-opacity="1"><g transform="translate(147.08657, 364.468598)"><g><path d="M 2.9375 0 L 2.9375 -54.484375 L 14.171875 -54.484375 L 14.171875 -24.078125 L 14.25 -24.078125 L 26.796875 -37.59375 L 39.875 -37.59375 L 25.765625 -23.203125 L 40.53125 0 L 28.125 0 L 18.359375 -16.453125 L 14.171875 -12.046875 L 14.171875 0 Z M 2.9375 0 "/></g></g></g><g fill="#ff69b4" fill-opacity="1"><g transform="translate(187.606869, 364.468598)"><g><path d="M 4.03125 0 L 4.03125 -52.28125 L 16.59375 -52.28125 L 16.59375 -32.375 L 16.734375 -32.3125 L 33.40625 -52.28125 L 48.671875 -52.28125 L 30.609375 -32.15625 L 49.34375 0 L 34.21875 0 L 22.09375 -22.828125 L 16.59375 -16.953125 L 16.59375 0 Z M 4.03125 0 "/></g></g></g><g fill="#ff69b4" fill-opacity="1"><g transform="translate(237.30296, 364.468598)"><g><path d="M 8.8125 -42.734375 C 6.851562 -42.734375 5.257812 -43.316406 4.03125 -44.484375 C 2.8125 -45.660156 2.203125 -47.207031 2.203125 -49.125 C 2.203125 -51.082031 2.8125 -52.644531 4.03125 -53.8125 C 5.257812 -54.988281 6.851562 -55.578125 8.8125 -55.578125 C 10.820312 -55.578125 12.4375 -54.988281 13.65625 -53.8125 C 14.875 -52.644531 15.484375 -51.082031 15.484375 -49.125 C 15.484375 -47.207031 14.875 -45.660156 13.65625 -44.484375 C 12.4375 -43.316406 10.820312 -42.734375 8.8125 -42.734375 Z M 3.234375 0 L 3.234375 -37.59375 L 14.390625 -37.59375 L 14.390625 0 Z M 3.234375 0 "/></g></g></g><g fill="#ff69b4" fill-opacity="1"><g transform="translate(254.993899, 364.468598)"><g><path d="M 11.96875 0 L 0.359375 -37.59375 L 11.671875 -37.59375 L 18.875 -10.203125 L 18.9375 -10.203125 L 27.75 -37.59375 L 38.171875 -37.59375 L 47.0625 -9.90625 L 47.140625 -9.90625 L 54.40625 -37.59375 L 65.640625 -37.59375 L 54.109375 0 L 41.34375 0 L 33.046875 -26.21875 L 32.890625 -26.21875 L 24.75 0 Z M 11.96875 0 "/></g></g></g><g fill="#ff69b4" fill-opacity="1"><g transform="translate(320.986182, 364.468598)"><g><path d="M 8.8125 -42.734375 C 6.851562 -42.734375 5.257812 -43.316406 4.03125 -44.484375 C 2.8125 -45.660156 2.203125 -47.207031 2.203125 -49.125 C 2.203125 -51.082031 2.8125 -52.644531 4.03125 -53.8125 C 5.257812 -54.988281 6.851562 -55.578125 8.8125 -55.578125 C 10.820312 -55.578125 12.4375 -54.988281 13.65625 -53.8125 C 14.875 -52.644531 15.484375 -51.082031 15.484375 -49.125 C 15.484375 -47.207031 14.875 -45.660156 13.65625 -44.484375 C 12.4375 -43.316406 10.820312 -42.734375 8.8125 -42.734375 Z M 3.234375 0 L 3.234375 -37.59375 L 14.390625 -37.59375 L 14.390625 0 Z M 3.234375 0 "/></g></g></g></svg>